<?xml version="1.0" encoding="utf-8"?>
<!-- Generator: Adobe Illustrator 26.0.2, SVG Export Plug-In . SVG Version: 6.00 Build 0)  -->
<svg version="1.1" id="Слой_1" xmlns="http://www.w3.org/2000/svg" xmlns:xlink="http://www.w3.org/1999/xlink" x="0px" y="0px"
	 width="595.3px" height="841.9px" viewBox="0 0 595.3 841.9" style="enable-background:new 0 0 595.3 841.9;" xml:space="preserve"
	>
<path style="fill:none;stroke:#FFFFFF;stroke-width:1.5;stroke-linecap:round;stroke-linejoin:round;" d="M5.4,0.8L0.9,5.3l4.5,4.5
	 M11.4,5.3H0.9"/>
<g>
	<g>
		<defs>
			<rect id="SVGID_1_" y="22" width="23.8" height="23.8"/>
		</defs>
		<clipPath id="SVGID_00000083081046499171530110000008679424255647249289_">
			<use xlink:href="#SVGID_1_"  style="overflow:visible;"/>
		</clipPath>
		<g style="clip-path:url(#SVGID_00000083081046499171530110000008679424255647249289_);">
			<path style="fill:#FFFFFF;" d="M23.7,28.6c-0.1-0.1-0.2-0.2-0.3-0.2c-0.1-0.1-0.2-0.1-0.3-0.1H7.2L6,24.2c-0.5-1.6-1.6-1.8-2-1.8
				H0.8c-0.4,0-0.7,0.3-0.7,0.7c0,0.4,0.3,0.7,0.7,0.7H4c0.1,0,0.4,0,0.6,0.7l4.1,15.1c0.1,0.3,0.4,0.5,0.7,0.5h10.1
				c0.3,0,0.6-0.2,0.7-0.5l3.5-10.5C23.8,29.1,23.8,28.8,23.7,28.6L23.7,28.6z M19,38.8h-9l-2.4-9H22L19,38.8z M17.5,41.8
				c-1,0-1.9,0.8-1.9,1.9c0,1,0.8,1.9,1.9,1.9s1.9-0.8,1.9-1.9S18.5,41.8,17.5,41.8z M10.8,41.8c-1,0-1.9,0.8-1.9,1.9
				c0,1,0.8,1.9,1.9,1.9c1,0,1.9-0.8,1.9-1.9S11.8,41.8,10.8,41.8z"/>
		</g>
	</g>
</g>
<path style="fill-rule:evenodd;clip-rule:evenodd;fill:#010202;fill-opacity:0.5;" d="M28.9,3.9c0,0.4-0.1,0.8-0.2,1.2
	c-0.2,0.4-0.4,0.7-0.7,1c-0.3,0.3-0.6,0.5-1,0.7S26.2,7,25.8,7c-0.4,0-0.8-0.1-1.2-0.2S24,6.3,23.8,6c-0.3-0.3-0.5-0.6-0.7-1
	s-0.2-0.8-0.2-1.2c0-0.8,0.3-1.6,0.9-2.1c0.6-0.6,1.3-0.9,2.1-0.9c0.8,0,1.6,0.3,2.1,0.9C28.6,2.3,28.9,3.1,28.9,3.9z M28.3,6.9
	c-0.8,0.6-1.8,0.9-2.8,0.8s-1.9-0.5-2.6-1.3c-0.7-0.7-1-1.7-1-2.7s0.4-1.9,1.1-2.6C23.8,0.4,24.8,0,25.8,0s2,0.3,2.7,1
	s1.2,1.6,1.3,2.6c0.1,1-0.2,2-0.8,2.8l2.5,2.5L31.6,9c0,0.1,0,0.1,0,0.2c0,0.1,0,0.1,0,0.2c0,0.1-0.1,0.1-0.1,0.1l-0.1,0.1
	c-0.1,0-0.1,0-0.2,0s-0.1,0-0.2,0s-0.1-0.1-0.1-0.1L28.3,6.9L28.3,6.9z"/>
<path style="fill:none;stroke:#010202;stroke-width:1.5;stroke-linecap:round;stroke-linejoin:round;stroke-opacity:0.5;" d="
	M39.5,0.8L33,7.3 M33,0.8l6.5,6.5"/>
<g>
	<g>
		<defs>
			<rect id="SVGID_00000011725718599689079820000005518334532662748547_" x="44" y="0" width="17" height="13"/>
		</defs>
		<clipPath id="SVGID_00000061466672651444828220000015031975134705670034_">
			<use xlink:href="#SVGID_00000011725718599689079820000005518334532662748547_"  style="overflow:visible;"/>
		</clipPath>
		<g style="clip-path:url(#SVGID_00000061466672651444828220000015031975134705670034_);">
			<path style="fill:#FFFFFF;" d="M54.7,12L54.7,12h-3.1l0,0l0,0c0,0.3-0.1,0.5-0.3,0.7C51,12.9,50.8,13,50.5,13s-0.5-0.1-0.7-0.3
				s-0.3-0.5-0.3-0.7l0,0l0,0h-0.4c-0.2,0-0.3-0.1-0.4-0.1c-0.1-0.1-0.2-0.2-0.2-0.4l0,0l-2.1-9.8l-1.8-0.3c-0.2,0-0.3-0.1-0.4-0.3
				C44,0.9,44,0.7,44,0.6c0-0.2,0.1-0.3,0.3-0.4C44.4,0,44.6,0,44.8,0l0,0L47,0.4c0.3,0,0.5,0.2,0.5,0.5l0,0l0.4,1.8l6.5,0.5
				c0,0.2-0.1,0.4-0.1,0.6l0,0c0,0.2,0,0.4,0.1,0.6l0,0c-0.2,0.1-0.3,0.2-0.4,0.3c-0.1,0.2-0.1,0.3-0.1,0.5l0,0L54.3,8
				c0,0.2,0.1,0.3,0.2,0.5c0.1,0.1,0.3,0.2,0.4,0.2l0,0H55l0,0c0.2,0,0.3-0.2,0.5-0.3c0.1-0.2,0.1-0.4,0.1-0.5l0,0l-0.2-1.5
				c0.3,0.4,0.8,0.6,1.2,0.8c0.5,0.2,0.9,0.3,1.4,0.3c0,0,0,0,0.1,0h0.1l-0.4,2.1c0,0.1,0,0.1-0.1,0.1s-0.1,0.1-0.1,0.1h-8.2
				l0.2,0.8h7.8c0.2,0,0.3,0.1,0.5,0.2c0.1,0.1,0.2,0.3,0.2,0.5s-0.1,0.3-0.2,0.5c-0.1,0.1-0.3,0.2-0.5,0.2h-0.6l0,0
				c0,0.3-0.1,0.5-0.3,0.7C56.3,12.9,56,13,55.7,13s-0.5-0.1-0.7-0.3S54.7,12.2,54.7,12L54.7,12z M55.4,12v0.1c0,0,0,0.1,0.1,0.1
				c0,0,0.1,0,0.1,0.1h0.1h0.1c0,0,0.1,0,0.1-0.1c0,0,0-0.1,0.1-0.1V12l0,0H55.4C55.4,11.9,55.4,12,55.4,12L55.4,12z M50.2,12v0.1
				c0,0,0,0.1,0.1,0.1c0,0,0.1,0,0.1,0.1h0.1h0.1c0,0,0.1,0,0.1-0.1c0,0,0-0.1,0.1-0.1V12l0,0H50.2C50.2,11.9,50.2,12,50.2,12
				L50.2,12L50.2,12z M52.3,4.5c-0.2,0-0.3,0.2-0.5,0.3c-0.1,0.2-0.1,0.4-0.1,0.5l0,0l0.4,2.8c0,0.2,0.1,0.3,0.2,0.5
				c0.1,0.1,0.3,0.2,0.4,0.2l0,0h0.1l0,0c0.2,0,0.3-0.2,0.5-0.3c0.1-0.2,0.1-0.4,0.1-0.5l0,0L53,5.2c0-0.2-0.1-0.3-0.2-0.5
				C52.7,4.6,52.5,4.5,52.3,4.5L52.3,4.5C52.4,4.4,52.4,4.4,52.3,4.5L52.3,4.5L52.3,4.5z M50.1,4.5c-0.2,0-0.3,0.2-0.5,0.3
				c-0.1,0.2-0.1,0.4-0.1,0.5l0,0L50,8.1c0,0.2,0.1,0.3,0.2,0.5c0.1,0.1,0.3,0.2,0.4,0.2l0,0h0.1l0,0c0.2,0,0.3-0.2,0.5-0.3
				c0.1-0.2,0.1-0.4,0.1-0.5l0,0l-0.4-2.8c0-0.2-0.1-0.3-0.2-0.5c-0.1-0.1-0.3-0.2-0.4-0.2l0,0C50.2,4.4,50.2,4.4,50.1,4.5L50.1,4.5
				z M55,3.8c0-0.8,0.3-1.6,0.9-2.2c0.3-0.3,0.6-0.5,1-0.7s0.8-0.2,1.2-0.2s0.8,0.1,1.2,0.2c0.4,0.2,0.7,0.4,1,0.7s0.5,0.6,0.7,1
				s0.2,0.8,0.2,1.2c0,0.8-0.3,1.6-0.9,2.2c-0.6,0.6-1.4,0.9-2.2,0.9S56.5,6.6,55.9,6S55,4.7,55,3.8L55,3.8z M55.9,3.8
				c0,0.3,0.1,0.6,0.2,0.8c0.1,0.3,0.3,0.5,0.5,0.7s0.5,0.4,0.7,0.5C57.5,6,57.8,6,58.1,6s0.6-0.1,0.9-0.2c0.3-0.1,0.5-0.3,0.7-0.5
				C59.9,5.2,60,5,60.1,4.7s0.2-0.6,0.2-0.8c0-0.6-0.2-1.1-0.7-1.6c-0.4-0.4-1-0.6-1.6-0.6s-1.2,0.2-1.6,0.6
				C56.1,2.7,55.9,3.3,55.9,3.8L55.9,3.8z M57.6,4.7V4.3h-0.4c-0.1,0-0.2,0-0.3-0.1S56.8,4,56.8,3.9c0-0.1,0-0.2,0.1-0.3
				s0.2-0.1,0.3-0.1h0.4V3c0-0.1,0-0.2,0.1-0.3s0.2-0.1,0.3-0.1s0.2,0,0.3,0.1s0.1,0.2,0.1,0.3v0.4H59c0.1,0,0.2,0,0.3,0.1
				s0.1,0.2,0.1,0.3s0,0.2-0.1,0.3c-0.1,0.1-0.2,0.1-0.3,0.1h-0.4v0.4c0,0.1,0,0.2-0.1,0.3C58.4,5,58.3,5,58.2,5S58,5,57.9,4.9
				C57.7,5,57.6,4.8,57.6,4.7L57.6,4.7z"/>
		</g>
	</g>
</g>
<path style="fill:#ECECEC;" d="M104,57c-20.6,0-40.7,6.1-57.8,17.5C29.1,86,15.8,102.2,7.9,121.2S-2,161.1,2,181.3
	s13.9,38.7,28.5,53.2C45,249.1,63.5,259,83.7,263s41.1,2,60.1-5.9c19-7.9,35.2-21.2,46.7-38.3c11.4-17.1,17.5-37.2,17.5-57.8
	c-0.1-27.6-11-54-30.5-73.5S131.6,57.1,104,57z M104,249c-17.4,0-34.4-5.2-48.9-14.8c-14.5-9.7-25.8-23.4-32.4-39.5
	c-6.7-16.1-8.4-33.8-5-50.8c3.4-17.1,11.8-32.8,24.1-45.1s28-20.7,45.1-24.1c17.1-3.4,34.8-1.7,50.8,5s29.8,17.9,39.5,32.4
	S192,143.6,192,161c0,23.3-9.3,45.7-25.8,62.2S127.3,249,104,249z M56,141c0-2.4,0.7-4.7,2-6.7s3.2-3.5,5.4-4.4
	c2.2-0.9,4.6-1.1,6.9-0.7c2.3,0.5,4.5,1.6,6.1,3.3c1.7,1.7,2.8,3.8,3.3,6.1s0.2,4.7-0.7,6.9c-0.9,2.2-2.4,4.1-4.4,5.4
	c-2,1.3-4.3,2-6.7,2c-3.2,0-6.2-1.3-8.5-3.5C57.3,147.2,56,144.2,56,141z M128,141c0-2.4,0.7-4.7,2-6.7s3.2-3.5,5.4-4.4
	s4.6-1.1,6.9-0.7c2.3,0.5,4.5,1.6,6.1,3.3c1.7,1.7,2.8,3.8,3.3,6.1s0.2,4.7-0.7,6.9s-2.4,4.1-4.4,5.4c-2,1.3-4.3,2-6.7,2
	c-3.2,0-6.2-1.3-8.5-3.5C129.3,147.2,128,144.2,128,141z M152.5,205c1.1,1.8,1.3,4,0.8,6s-1.9,3.8-3.7,4.9c-1.2,0.7-2.6,1.1-4,1.1
	s-2.8-0.3-4-1s-2.2-1.7-2.9-3c-3.5-6.1-8.6-11.1-14.7-14.6c-6.1-3.5-13-5.4-20-5.4s-13.9,1.8-20,5.4c-6.1,3.5-11.2,8.6-14.7,14.6
	c-0.5,1-1.2,1.9-2,2.6c-0.8,0.7-1.8,1.3-2.9,1.6s-2.2,0.4-3.3,0.3c-1.1-0.1-2.2-0.5-3.1-1c-1-0.6-1.8-1.3-2.4-2.2
	c-0.7-0.9-1.1-1.9-1.4-3c-0.2-1.1-0.3-2.2,0-3.3c0.2-1.1,0.6-2.1,1.3-3c4.9-8.5,12-15.6,20.5-20.5s18.2-7.5,28-7.5s19.5,2.6,28,7.5
	C140.5,189.4,147.6,196.5,152.5,205z"/>
<path style="fill:#FFFFFF;" d="M3.2,276.2C3.1,276.1,3.1,276,3,276s-0.2-0.1-0.2-0.1c-0.1,0-0.2,0-0.2,0c-0.1,0-0.2,0.1-0.2,0.1
	l-1,1c-0.4,0.4-0.6,1-0.4,1.5c0.8,2.2,2,4.2,3.6,5.8c1.6,1.6,3.6,2.9,5.8,3.6c0.5,0.2,1.1,0,1.5-0.4l0.9-0.9
	c0.1-0.1,0.1-0.1,0.1-0.2s0-0.2,0-0.2c0-0.1,0-0.2-0.1-0.2c0-0.1-0.1-0.1-0.2-0.2l-2-1.6c-0.1-0.1-0.2-0.1-0.2-0.1s-0.2,0-0.3,0
	l-1.9,0.5c-0.3,0.1-0.5,0.1-0.8,0s-0.5-0.2-0.7-0.4l-2.1-2.1c-0.2-0.2-0.3-0.4-0.4-0.7c-0.1-0.3-0.1-0.5,0-0.8l0.5-1.9
	c0-0.1,0-0.2,0-0.3c0-0.1-0.1-0.2-0.1-0.2L3.2,276.2z M1.6,275.4c0.2-0.2,0.3-0.3,0.5-0.3s0.4-0.1,0.6-0.1s0.4,0.1,0.6,0.2
	c0.2,0.1,0.4,0.2,0.5,0.4l1.6,2c0.3,0.4,0.4,0.9,0.3,1.3l-0.5,1.9c0,0.1,0,0.2,0,0.3c0,0.1,0.1,0.2,0.2,0.3l2.1,2.1
	c0.1,0.1,0.2,0.1,0.3,0.2c0.1,0,0.2,0,0.3,0l1.9-0.5c0.2-0.1,0.5-0.1,0.7,0c0.2,0,0.4,0.1,0.6,0.3l2,1.6c0.7,0.6,0.8,1.6,0.1,2.3
	l-0.9,0.9c-0.6,0.6-1.6,0.9-2.5,0.6c-2.3-0.8-4.4-2.1-6.1-3.9c-1.7-1.7-3.1-3.8-3.9-6.1c-0.3-0.9,0-1.9,0.6-2.5L1.6,275.4L1.6,275.4
	z"/>
<path style="fill:#A0A09F;" d="M231.9,2.9c1-2,3.2-3.2,5.4-2.9l81.1,10.2L399.5,0c2.2-0.3,4.4,0.9,5.4,2.9l13.8,27.7
	c3,5.9-0.2,13.1-6.6,15L358,61.1c-4.6,1.3-9.5-0.6-12-4.7l-27.6-46.2l-27.6,46.2c-2.5,4.1-7.4,6.1-12,4.7l-54.1-15.5
	c-6.4-1.8-9.5-9-6.6-15L231.9,2.9L231.9,2.9z M318.8,31.5L337,61.8c4.9,8.2,14.8,12.2,24,9.5l42.2-12.1v55.4c0,7.3-5,13.7-12.1,15.5
	L323.5,147c-3.4,0.9-6.9,0.9-10.3,0l-67.6-16.9c-7.1-1.8-12.1-8.2-12.1-15.5V59.2l42.3,12.1c9.2,2.7,19.1-1.3,24-9.5L318,31.5H318.8
	z"/>
<g style="opacity:0.5;">
	<path style="fill:#010202;" d="M315.3,199.1c1.2,1.2,1.2,3.1,0,4.2L281,237.6c-0.3,0.3-0.6,0.5-1,0.7s-0.8,0.2-1.1,0.2
		c-0.4,0-0.8-0.1-1.1-0.2c-0.4-0.2-0.7-0.4-1-0.7L264,224.9c-0.3-0.3-0.5-0.6-0.7-1s-0.2-0.8-0.2-1.1c0-0.4,0.1-0.8,0.2-1.1
		s0.4-0.7,0.7-1c0.3-0.3,0.6-0.5,1-0.7s0.8-0.2,1.1-0.2s0.8,0.1,1.1,0.2c0.4,0.2,0.7,0.4,1,0.7l10.6,10.6l32.2-32.2
		c0.3-0.3,0.6-0.5,1-0.7s0.8-0.2,1.1-0.2s0.8,0.1,1.1,0.2C314.7,198.6,315,198.8,315.3,199.1z M308.9,192.6l-30.1,30.1l-8.4-8.4
		c-2.4-2.4-6.2-2.4-8.6,0l-4.2,4.2c-2.4,2.4-2.4,6.2,0,8.6l17,17c2.4,2.4,6.2,2.4,8.6,0l38.6-38.6c2.4-2.4,2.4-6.2,0-8.6l-4.2-4.2
		C315.1,190.3,311.3,190.3,308.9,192.6z"/>
	<circle style="fill:none;stroke:#010202;stroke-width:7;" cx="290" cy="218" r="48"/>
</g>
</svg>
